<svg width="401" height="412" viewBox="0 0 401 412" fill="none" xmlns="http://www.w3.org/2000/svg">
<path d="M273.864 277.113C290.053 291.967 310.228 309.671 327.92 322.782C336.754 329.328 345.062 334.8 351.998 338.191C355.461 339.884 358.691 341.114 361.544 341.666C364.352 342.209 367.158 342.164 369.445 340.833C371.907 339.4 373.065 336.825 373.501 334.05C373.937 331.274 373.725 327.905 373.091 324.192C371.82 316.741 368.726 307.221 364.651 296.827C356.485 275.999 344.159 251.127 333.722 231.19C322.792 210.311 295.888 204.799 277.158 218.913C258.205 233.195 256.287 260.984 273.864 277.113Z" fill="white" stroke="black" stroke-width="5"/>
<path d="M65.9182 235.619C56.4458 255.444 45.4146 279.913 38.0492 300.665C34.3717 311.027 31.5679 320.572 30.3526 328.197C29.7459 332.003 29.5146 335.452 29.821 338.341C30.1227 341.185 30.9861 343.855 32.9277 345.653C35.0174 347.588 37.8186 347.944 40.5994 347.549C43.3816 347.154 46.5415 345.966 49.9072 344.275C56.661 340.881 64.8608 335.139 73.6087 328.203C91.1392 314.304 111.32 295.245 127.335 279.435C144.106 262.877 141.511 235.538 122.538 221.753C103.339 207.804 76.2028 214.094 65.9182 235.619Z" fill="white" stroke="black" stroke-width="5"/>
<path d="M83.3154 247.732C95.0655 278.639 111.994 318.276 131.911 350.452C141.867 366.536 152.633 380.861 163.951 391.307C175.246 401.73 187.333 408.514 199.904 408.998C212.608 409.488 224.88 403.214 236.35 393.047C247.841 382.86 258.801 368.528 268.95 352.3C289.254 319.832 306.597 279.305 318.593 247.817C328.819 220.975 308.517 193.5 280.025 193.5L121.881 193.5C93.4205 193.5 73.1171 220.906 83.3154 247.732Z" fill="#FFFCFC" stroke="black" stroke-width="5"/>
<path d="M68.5 55C68.5 46.1838 75.0193 38.8903 83.5 37.6772V107.5H68.5V55Z" fill="#EFB6FF" stroke="black" stroke-width="5"/>
<path d="M326.5 37.6772C334.981 38.8903 341.5 46.1838 341.5 55V107.5H326.5V37.6772Z" fill="#EFB6FF" stroke="black" stroke-width="5"/>
<path d="M327.5 167.5C314.245 167.5 303.5 156.755 303.5 143.5V112.5C303.5 99.2452 314.245 88.5 327.5 88.5C340.755 88.5 351.5 99.2452 351.5 112.5V143.5C351.5 156.755 340.755 167.5 327.5 167.5Z" fill="white" stroke="black" stroke-width="5"/>
<path d="M157.5 16.6144C157.5 8.81924 163.819 2.5 171.614 2.5H222.386C230.181 2.5 236.5 8.81924 236.5 16.6144C236.5 35.3289 221.329 50.5 202.614 50.5H191.386C172.671 50.5 157.5 35.3289 157.5 16.6144Z" fill="white" stroke="black" stroke-width="5"/>
<path d="M76.5 167.5C63.2452 167.5 52.5 156.755 52.5 143.5V112.5C52.5 99.2452 63.2452 88.5 76.5 88.5C89.7548 88.5 100.5 99.2452 100.5 112.5V143.5C100.5 156.755 89.7548 167.5 76.5 167.5Z" fill="white" stroke="black" stroke-width="5"/>
<path d="M70.5 127.5C70.5 68.4055 118.406 20.5 177.5 20.5H224.5C283.594 20.5 331.5 68.4055 331.5 127.5C331.5 186.594 283.594 234.5 224.5 234.5H177.5C118.406 234.5 70.5 186.594 70.5 127.5Z" fill="white" stroke="black" stroke-width="5"/>
<path d="M200.616 176.985C204.736 176.985 210.077 177.524 216.301 178.153C219.639 178.489 223.231 178.852 227.024 179.171C237.71 180.069 249.705 180.578 260.953 178.909C272.199 177.24 282.945 173.357 290.877 165.265C298.853 157.126 303.667 145.056 303.667 127.677C303.667 115.649 301.313 105.561 296.626 97.224C291.931 88.8738 284.985 82.439 276.06 77.589C258.331 67.9535 232.651 64.5 200.616 64.5C168.644 64.5 144.615 67.5029 128.562 76.9827C120.452 81.7721 114.386 88.2051 110.378 96.6454C106.389 105.046 104.5 115.302 104.5 127.677C104.5 146.245 108.82 158.938 116.103 167.346C123.395 175.765 133.337 179.517 143.794 180.865C154.22 182.209 165.384 181.194 175.405 179.89C178.174 179.529 180.836 179.151 183.369 178.791C190.179 177.822 196.063 176.985 200.616 176.985Z" fill="url(#paint0_linear_2311_106)" stroke="#3B0635" stroke-width="5"/>
<path d="M287.956 323.5C287.956 323.5 235.504 300.361 200 300.5C167.401 300.628 147.872 305.447 118.956 320.5" stroke="black" stroke-width="5"/>
<path d="M142.128 291.543C147.541 300.595 156.132 313.566 166.56 324.379C176.899 335.1 189.5 344.177 202.949 344.492C216.52 344.81 229.351 335.767 239.88 324.952C250.51 314.035 259.314 300.772 264.836 291.562C268.97 284.668 263.792 276.5 256.05 276.5H150.916C143.183 276.5 138.007 284.652 142.128 291.543Z" fill="#EFB6FF" stroke="black" stroke-width="5"/>
<g filter="url(#filter0_d_2311_106)">
<path d="M130 129.427C141.131 116.302 156.5 117.427 167.756 129.427" stroke="#40033D" stroke-width="10" stroke-linecap="round"/>
</g>
<g filter="url(#filter1_d_2311_106)">
<path d="M240 129.427C251.131 116.302 266.5 117.427 277.756 129.427" stroke="#40033D" stroke-width="10" stroke-linecap="round"/>
</g>
<defs>
<filter id="filter0_d_2311_106" x="115" y="107" width="67.7563" height="39.4268" filterUnits="userSpaceOnUse" color-interpolation-filters="sRGB">
<feFlood flood-opacity="0" result="BackgroundImageFix"/>
<feColorMatrix in="SourceAlpha" type="matrix" values="0 0 0 0 0 0 0 0 0 0 0 0 0 0 0 0 0 0 127 0" result="hardAlpha"/>
<feOffset dy="2"/>
<feGaussianBlur stdDeviation="5"/>
<feComposite in2="hardAlpha" operator="out"/>
<feColorMatrix type="matrix" values="0 0 0 0 0.934888 0 0 0 0 0.0233337 0 0 0 0 1 0 0 0 1 0"/>
<feBlend mode="normal" in2="BackgroundImageFix" result="effect1_dropShadow_2311_106"/>
<feBlend mode="normal" in="SourceGraphic" in2="effect1_dropShadow_2311_106" result="shape"/>
</filter>
<filter id="filter1_d_2311_106" x="225" y="107" width="67.7563" height="39.4268" filterUnits="userSpaceOnUse" color-interpolation-filters="sRGB">
<feFlood flood-opacity="0" result="BackgroundImageFix"/>
<feColorMatrix in="SourceAlpha" type="matrix" values="0 0 0 0 0 0 0 0 0 0 0 0 0 0 0 0 0 0 127 0" result="hardAlpha"/>
<feOffset dy="2"/>
<feGaussianBlur stdDeviation="5"/>
<feComposite in2="hardAlpha" operator="out"/>
<feColorMatrix type="matrix" values="0 0 0 0 0.934888 0 0 0 0 0.0233337 0 0 0 0 1 0 0 0 1 0"/>
<feBlend mode="normal" in2="BackgroundImageFix" result="effect1_dropShadow_2311_106"/>
<feBlend mode="normal" in="SourceGraphic" in2="effect1_dropShadow_2311_106" result="shape"/>
</filter>
<linearGradient id="paint0_linear_2311_106" x1="207.866" y1="44.1772" x2="207.866" y2="156.177" gradientUnits="userSpaceOnUse">
<stop stop-color="#EFB6FF"/>
<stop offset="1" stop-color="#D8B3E2"/>
</linearGradient>
</defs>
</svg>
